# xmcd CD database file
#
# Track frame offsets:
#	150
#	19215
#	35852
#	63575
#
# Disc length: 4440 seconds
#
# Revision: 0
# Processed by: cddbd v1.5.1PL2 Copyright (c) Steve Scherf et al.
# Submitted via: CDex 1.51
#
DISCID=35115604
DTITLE=SQUEEZE!! - 春風
DYEAR=1900
DGENRE=Ska
TTITLE0=春風
TTITLE1=KARMA CHAMELEON
TTITLE2=リトルワールド
TTITLE3=data
EXTD=
EXTT0=
EXTT1=
EXTT2=
EXTT3=
PLAYORDER=
